<svg xmlns="http://www.w3.org/2000/svg" xmlns:v="https://vecta.io/nano" width="512" height="288" fill="none"><path d="M14.963 112.847L38.765 99.12l23.802 13.727-8.75 5.071-15.051-8.656-15.05 8.656-8.751-5.071h0zm47.604 17.312l-8.751-5.071-15.051 8.655-15.05-8.655-8.751 5.071v10.142l15.051 8.656v17.312l8.75 5.072 8.751-5.072v-17.312l15.05-8.656v-10.142h.001zm0 27.455v-10.143l-8.751 5.071v10.143l8.751-5.071zm6.212 3.584l-15.05 8.656v10.142l23.802-13.727v-27.455l-8.751 5.072v17.312h0zm-8.75-39.695l8.75 5.071v10.142l8.751-5.071v-10.142l-8.751-5.071-8.75 5.071h0zm-30.014 52.023v10.143l8.75 5.071 8.751-5.071v-10.143l-8.751 5.071-8.75-5.071zm-15.051-15.912l8.751 5.071v-10.143l-8.751-5.071v10.143zm15.051-36.111l8.75 5.071 8.751-5.071-8.751-5.071-8.75 5.071zM8.75 126.574l8.75-5.071-8.75-5.071L0 121.503v10.142l8.75 5.071v-10.142h0zm0 17.312L0 138.814v27.455l23.802 13.727v-10.142L8.75 161.198v-17.312h0zm137.768 11.477v-.143c0-6.697-3.565-10.047-9.342-12.255 3.566-1.995 6.561-5.131 6.561-10.76v-.142c0-7.837-6.275-12.897-16.473-12.897h-23.176v49.877h23.746c11.268 0 18.684-4.561 18.684-13.68zm-13.692-21.305c0 3.705-3.066 5.273-7.915 5.273h-10.126v-10.545h10.839c4.635 0 7.202 1.852 7.202 5.13v.142h0zm2.781 19.951c0 3.705-2.923 5.415-7.773 5.415h-13.049v-10.973h12.693c5.633 0 8.129 2.066 8.129 5.415v.143h0zm65.012 15.034v-49.877H189.78v30.71l-23.39-30.71h-10.126v49.877h10.839v-31.707l24.175 31.707h9.341 0zm55.126-13.68v-.143c0-6.697-3.566-10.047-9.342-12.255 3.566-1.995 6.561-5.131 6.561-10.76v-.142c0-7.837-6.275-12.897-16.473-12.897h-23.175v49.877h23.746c11.267 0 18.683-4.561 18.683-13.68h0zm-13.691-21.305c0 3.705-3.067 5.273-7.916 5.273h-10.126v-10.545h10.839c4.635 0 7.203 1.852 7.203 5.13v.142zm2.78 19.951c0 3.705-2.924 5.415-7.772 5.415h-13.05v-10.973h12.693c5.633 0 8.129 2.066 8.129 5.415v.143h0zm77.096 6.222l-5.634-5.7c-4.278 3.991-8.201 6.485-14.334 6.485-9.555 0-16.472-7.981-16.472-17.814s6.917-17.67 16.472-17.67c5.706 0 9.984 2.494 13.978 6.199l5.633-6.484c-4.778-4.56-10.34-7.766-19.539-7.766-15.118 0-25.743 11.613-25.743 25.864 0 14.393 10.839 25.722 25.387 25.722 9.341 0 15.046-3.421 20.252-8.836zm42.52-13.039v21.02h8.772v-49.877h-8.772v20.734h-23.817v-20.734h-8.771v49.877h8.771v-21.02h23.817zm48.117-29.213h-8.129l-21.963 50.233h8.984l5.135-12.041h23.604l5.064 12.041h9.269l-21.964-50.233zm4.421 30.425h-17.183l8.554-19.951 8.629 19.951zm27.316-30.069v49.877h8.771v-49.877h-8.771zm57.718 34.487l-26.744-34.487h-8.128v49.877h8.628v-35.484l27.525 35.484h7.347v-49.877h-8.628v34.487z" fill="#313144"/></svg>