<svg xmlns="http://www.w3.org/2000/svg" xmlns:v="https://vecta.io/nano" width="512" height="288" fill="#313144"><path d="M145.162 153.814a1.7 1.7 0 0 1-1.708 1.659h-31.431c.807 7.774 6.638 14.885 14.887 14.885 5.641 0 9.812-2.132 12.942-6.636a1.7 1.7 0 0 1 .587-.575c.239-.14.51-.22.787-.232.207-.006.413.031.606.108s.367.191.514.338.261.321.338.513.113.399.107.606a1.47 1.47 0 0 1-.237.806c-3.176 5.499-9.482 8.201-15.644 8.201-10.572 0-18.158-9.481-18.158-19.579s7.538-19.579 18.158-19.579 18.204 9.386 18.252 19.485h0zm-3.367-1.47c-.663-7.775-6.637-14.886-14.885-14.886s-14.08 7.111-14.887 14.886h29.772zm41.577-17.257a1.61 1.61 0 0 1 1.564 1.565 1.52 1.52 0 0 1-.25.88 1.53 1.53 0 0 1-1.314.684h-8.438v33.138a1.58 1.58 0 0 1-.463 1.103 1.57 1.57 0 0 1-1.102.461 1.61 1.61 0 0 1-1.564-1.564v-33.138h-8.107c-.207.006-.413-.031-.606-.107s-.367-.192-.514-.338-.261-.321-.338-.513-.113-.399-.106-.606c.003-.414.168-.81.461-1.103s.689-.458 1.103-.462h8.107v-12.089a1.68 1.68 0 0 1 1.421-1.659 1.55 1.55 0 0 1 1.625.916 1.54 1.54 0 0 1 .13.649v12.183h8.391 0zm51.437 16.024v20.054a1.61 1.61 0 0 1-1.565 1.564 1.52 1.52 0 0 1-.88-.25 1.53 1.53 0 0 1-.578-.709c-.076-.192-.112-.398-.106-.605v-20.054c0-6.779-3.84-13.511-11.378-13.511-9.672 0-13.843 8.438-13.274 17.114 0 .237.094 1.233.094 1.375v15.029c0 .4-.143.788-.404 1.092s-.621.505-1.017.567a1.58 1.58 0 0 1-.659-.056 1.56 1.56 0 0 1-.577-.324 1.53 1.53 0 0 1-.389-.536 1.54 1.54 0 0 1-.13-.649v-65.944a1.58 1.58 0 0 1 1.564-1.564c.412.012.803.181 1.094.471a1.62 1.62 0 0 1 .471 1.093v37.262c2.703-4.835 7.538-8.106 13.179-8.106 9.292 0 14.555 8.106 14.555 16.687zm56.462 2.703a1.69 1.69 0 0 1-1.706 1.659h-31.431c.805 7.774 6.636 14.885 14.885 14.885 5.642 0 9.814-2.132 12.943-6.636a1.69 1.69 0 0 1 .586-.575 1.7 1.7 0 0 1 .789-.232c.311-.007.618.081.878.252a1.54 1.54 0 0 1 .579.707c.076.193.113.399.107.606a1.47 1.47 0 0 1-.237.806c-3.176 5.499-9.482 8.201-15.645 8.201-10.571 0-18.157-9.481-18.157-19.579s7.538-19.579 18.157-19.579c10.525 0 18.205 9.386 18.252 19.485h0zm-3.413-1.47c-.664-7.775-6.637-14.886-14.886-14.886s-14.08 7.111-14.886 14.886h29.772 0zm42.05-15.787c.029.421-.109.836-.384 1.156s-.665.517-1.086.551c-9.244 1.374-13.416 8.912-13.416 17.682v15.029a1.68 1.68 0 0 1-.405 1.092c-.261.305-.621.506-1.017.567-.221.029-.446.01-.659-.056s-.41-.176-.577-.324-.3-.331-.389-.535a1.53 1.53 0 0 1-.129-.649v-34.276a1.68 1.68 0 0 1 1.422-1.659c.333-.045.672.02.965.185s.525.422.659.73c.09.205.134.426.13.649v6.969c2.608-4.409 7.775-8.581 13.179-8.581.806 0 1.707.569 1.707 1.47h0zm51.674 17.257c-.007.446-.19.871-.51 1.182a1.69 1.69 0 0 1-1.196.477h-31.431c.805 7.774 6.637 14.885 14.885 14.885 5.642 0 9.814-2.132 12.943-6.636.145-.237.347-.434.586-.575a1.7 1.7 0 0 1 .788-.232 1.55 1.55 0 0 1 .606.108c.192.077.367.192.514.338s.262.321.338.514a1.51 1.51 0 0 1 .107.605c.001.286-.082.566-.237.806-3.177 5.499-9.481 8.201-15.645 8.201-10.572 0-18.156-9.481-18.156-19.579s7.537-19.579 18.156-19.579 18.205 9.386 18.252 19.485h0zm-3.365-1.47c-.664-7.775-6.638-14.886-14.887-14.886s-14.08 7.111-14.885 14.886h29.772zm54.185-15.408v34.418a1.61 1.61 0 0 1-.47 1.094c-.291.291-.682.459-1.094.47a1.51 1.51 0 0 1-.605-.107c-.193-.077-.367-.192-.514-.338s-.261-.321-.338-.514a1.51 1.51 0 0 1-.107-.605v-6.543c-2.608 5.168-7.206 8.913-13.084 8.913-9.34 0-14.507-8.106-14.507-16.687v-20.148a1.58 1.58 0 0 1 .463-1.102c.292-.293.687-.459 1.101-.463.411.012.802.181 1.093.472s.46.682.472 1.093v20.148c0 6.779 3.84 13.511 11.378 13.511 10.572 0 13.084-9.908 13.084-20.859v-12.848a1.59 1.59 0 0 1 1.021-1.462 1.59 1.59 0 0 1 1.112-.008c.298.139.55.36.726.637s.27.599.269.928h0zM512 150.969v20.148c-.012.411-.181.802-.472 1.093s-.682.46-1.093.472c-.207.005-.413-.031-.605-.108s-.368-.191-.514-.338-.262-.321-.338-.514-.113-.398-.108-.605v-20.148c0-6.779-3.84-13.417-11.377-13.417-9.482 0-13.084 10.146-13.084 18.015v15.55c-.012.411-.181.802-.472 1.093s-.682.46-1.093.472a1.54 1.54 0 0 1-.879-.252c-.26-.171-.462-.418-.579-.708-.076-.192-.112-.398-.106-.605v-20.148c0-6.779-3.84-13.417-11.378-13.417-9.576 0-13.512 7.538-13.18 17.589 0 .237.096.663 0 .805v15.124c-.001.4-.145.787-.405 1.091a1.69 1.69 0 0 1-1.016.568 1.55 1.55 0 0 1-1.625-.916c-.09-.205-.134-.426-.13-.649v-34.37a1.69 1.69 0 0 1 1.423-1.66c.221-.029.446-.011.659.055s.41.177.577.325.298.332.388.536a1.56 1.56 0 0 1 .129.649v5.736c2.703-4.835 7.539-8.012 13.18-8.012 6.4 0 11.378 4.078 13.416 10.003 2.608-5.878 7.68-10.003 14.175-10.003 9.245 0 14.507 8.012 14.507 16.546h0z"/><path opacity=".6" d="M39.348 127.454L0 145.327l39.348 23.277 39.396-23.277-39.396-17.873h0z"/><path opacity=".45" d="M0 145.327l39.348 23.278V80L0 145.327z"/><path opacity=".8" d="M39.348 80v88.605l39.396-23.278L39.348 80z"/><path opacity=".45" d="M0 152.818l39.348 55.467v-32.238L0 152.818z"/><path opacity=".8" d="M39.348 176.047v32.238l39.396-55.467-39.396 23.229h0z"/></svg>