<svg xmlns="http://www.w3.org/2000/svg" xmlns:v="https://vecta.io/nano" width="512" height="288" fill="#313144"><path d="M254.284 237.378c-1.01.001-2.003-.264-2.879-.769l-9.167-5.423c-1.374-.762-.687-1.037-.248-1.195 1.448-.452 2.834-1.085 4.124-1.883.109-.052.23-.075.351-.065s.237.051.336.12l7.037 4.178c.131.071.277.109.426.109s.295-.038.426-.109l27.454-15.847c.127-.077.233-.186.307-.316a.87.87 0 0 0 .112-.426v-31.681a.87.87 0 0 0-.426-.755l-27.44-15.806a.85.85 0 0 0-.423-.113c-.148 0-.294.039-.422.113l-27.44 15.806c-.132.078-.241.188-.317.32s-.116.283-.116.435v31.681a.83.83 0 0 0 .115.427c.076.13.186.236.318.308l7.517 4.343c4.083 2.062 6.584-.364 6.584-2.748v-31.31a.79.79 0 0 1 .06-.304c.04-.096.099-.184.174-.257.15-.148.352-.23.563-.229h3.478a.77.77 0 0 1 .304.058c.097.039.185.097.259.171a.8.8 0 0 1 .233.561v31.282c0 5.449-2.961 8.569-8.129 8.569-1.587 0-2.831 0-6.323-1.717l-7.201-4.124a5.81 5.81 0 0 1-2.88-5.009v-31.681a5.79 5.79 0 0 1 .772-2.886 5.78 5.78 0 0 1 2.108-2.116l27.44-15.889c.885-.484 1.878-.737 2.886-.737a6.02 6.02 0 0 1 2.887.737l27.453 15.868a5.79 5.79 0 0 1 2.107 2.117c.505.878.771 1.872.772 2.885v31.681c-.002 1.013-.269 2.009-.774 2.887a5.82 5.82 0 0 1-2.105 2.123l-27.453 15.847c-.87.5-1.856.766-2.86.769h0zm8.446-21.826c-12.012 0-14.527-5.498-14.527-10.136a.79.79 0 0 1 .23-.561.78.78 0 0 1 .257-.171.77.77 0 0 1 .304-.058h3.552c.193-.002.38.067.525.194a.79.79 0 0 1 .266.493c.536 3.614 2.13 5.442 9.393 5.442 5.787 0 8.248-1.312 8.248-4.377 0-1.773-.688-3.085-9.684-3.965-7.511-.743-12.156-2.406-12.156-8.411 0-5.54 4.666-8.845 12.493-8.845 8.796 0 13.147 3.051 13.696 9.621a.76.76 0 0 1-.038.324c-.036.105-.093.2-.168.28a.79.79 0 0 1-.584.255h-3.559a.79.79 0 0 1-.771-.619c-.858-3.8-2.934-5.016-8.576-5.016-6.315 0-7.05 2.199-7.05 3.848 0 1.993.865 2.577 9.393 3.704s12.446 2.694 12.446 8.624-4.955 9.374-13.69 9.374zm39.591-33.226a5.3 5.3 0 0 1-.892 2.94 5.29 5.29 0 0 1-2.375 1.948c-.723.3-1.504.436-2.285.398a5.28 5.28 0 0 1-3.991-2.133c-.466-.629-.787-1.353-.939-2.121s-.133-1.559.057-2.318a5.29 5.29 0 0 1 2.87-3.497c.708-.335 1.48-.508 2.263-.509 1.402.004 2.745.563 3.737 1.555a5.3 5.3 0 0 1 1.555 3.737zm-9.731 0a4.44 4.44 0 0 0 1.148 2.981 4.45 4.45 0 0 0 2.852 1.439 4.44 4.44 0 0 0 2.897-8.104 4.45 4.45 0 0 0-2.241-.735 4.44 4.44 0 0 0-2.301.515c-.707.376-1.299.936-1.713 1.621a4.43 4.43 0 0 0-.642 2.269v.014zm2.453-2.955h2.062c.687 0 2.061 0 2.061 1.567a1.38 1.38 0 0 1-.281.942c-.207.269-.506.452-.839.514.811.056.866.592.976 1.375.031.534.135 1.061.309 1.567h-1.257c0-.282-.228-1.794-.228-1.876-.082-.337-.199-.502-.618-.502h-1.024v2.378h-1.147l-.014-5.965zm1.12 2.604h.921c.116.016.235.005.347-.031a.79.79 0 0 0 .301-.176.8.8 0 0 0 .197-.287.81.81 0 0 0 .055-.344c0-.811-.563-.811-.873-.811h-.948v1.649z"/><g fill-rule="evenodd"><path d="M169.237 113.426c.002-.619-.16-1.228-.468-1.765a3.51 3.51 0 0 0-1.291-1.292l-29.104-16.747c-.488-.282-1.038-.443-1.601-.468h-.303a3.56 3.56 0 0 0-1.608.468l-29.103 16.747c-.535.31-.98.757-1.289 1.293a3.52 3.52 0 0 0-.47 1.764l.062 45.102c-.003.309.077.612.232.879a1.72 1.72 0 0 0 .648.639 1.68 1.68 0 0 0 1.745 0l17.297-9.902a3.56 3.56 0 0 0 1.285-1.292 3.55 3.55 0 0 0 .474-1.759v-21.077a3.5 3.5 0 0 1 .47-1.753c.308-.534.75-.976 1.283-1.285l7.366-4.246a3.5 3.5 0 0 1 1.767-.467c.613-.003 1.216.158 1.745.467l7.367 4.246c.533.308.976.751 1.284 1.284s.469 1.138.469 1.754v21.077c.003.618.167 1.225.477 1.76a3.56 3.56 0 0 0 1.288 1.291l17.291 9.902a1.7 1.7 0 0 0 .879.244c.31 0 .614-.084.88-.244.265-.154.486-.376.639-.642a1.77 1.77 0 0 0 .234-.876l.055-45.102zM309.262 51.42a1.76 1.76 0 0 0-1.743.023 1.76 1.76 0 0 0-.634.64 1.77 1.77 0 0 0-.235.87v44.668c-.001.217-.059.43-.167.618a1.25 1.25 0 0 1-.451.454 1.23 1.23 0 0 1-1.23 0l-7.264-4.212a3.51 3.51 0 0 0-3.512 0l-29.116 16.801c-.536.307-.982.751-1.291 1.285s-.471 1.142-.469 1.76v33.619a3.52 3.52 0 0 0 .472 1.757c.309.535.753.978 1.288 1.287l29.116 16.816c.534.307 1.14.469 1.756.469s1.222-.162 1.756-.469l29.124-16.816c.533-.31.976-.754 1.285-1.288a3.54 3.54 0 0 0 .474-1.756V64.162c0-.627-.167-1.242-.485-1.783a3.5 3.5 0 0 0-1.322-1.289l-17.352-9.67zm-2.701 85.489c.001.155-.039.307-.117.441s-.189.245-.323.321l-9.999 5.767a.91.91 0 0 1-.44.113.92.92 0 0 1-.44-.113l-9.992-5.767c-.134-.076-.246-.187-.323-.321s-.117-.286-.116-.441v-11.545a.87.87 0 0 1 .433-.756l9.998-5.78c.134-.078.286-.118.44-.118a.87.87 0 0 1 .44.118l9.999 5.78c.134.075.245.185.322.318s.118.284.118.438v11.545zm99.687-11.847a3.51 3.51 0 0 0 1.283-1.284c.308-.534.469-1.138.469-1.754v-8.143c0-.617-.162-1.222-.47-1.756a3.53 3.53 0 0 0-1.282-1.289l-28.952-16.795a3.53 3.53 0 0 0-3.526 0l-29.103 16.809a3.5 3.5 0 0 0-1.289 1.285c-.309.535-.471 1.142-.47 1.759v33.604a3.52 3.52 0 0 0 .476 1.764 3.53 3.53 0 0 0 1.297 1.288l28.931 16.493c.525.293 1.117.446 1.718.446s1.193-.153 1.718-.446l17.497-9.724c.271-.153.497-.376.654-.646a1.76 1.76 0 0 0 .239-.887c0-.311-.082-.617-.239-.887a1.76 1.76 0 0 0-.654-.645l-29.289-16.809c-.269-.154-.493-.376-.648-.644a1.75 1.75 0 0 1-.238-.882v-10.514a1.74 1.74 0 0 1 .236-.877 1.75 1.75 0 0 1 .643-.642l9.119-5.257a1.74 1.74 0 0 1 .876-.237c.308 0 .611.082.877.237l9.125 5.257a1.76 1.76 0 0 1 .644.642 1.75 1.75 0 0 1 .236.877v8.246c-.001.31.079.614.233.882s.377.491.646.645a1.76 1.76 0 0 0 1.761-.008l17.482-10.108h0zm-31.123-1.575a.69.69 0 0 1 .687 0l5.608 3.223c.103.06.19.147.25.25s.092.222.093.342v6.445c-.002.119-.034.235-.095.338a.68.68 0 0 1-.248.246l-5.587 3.231a.69.69 0 0 1-.688 0l-5.58-3.231c-.101-.06-.186-.145-.245-.248s-.09-.218-.091-.336v-6.445a.68.68 0 0 1 .089-.341c.059-.104.144-.19.247-.251l5.56-3.223z"/><path d="M214.263 94.39a3.44 3.44 0 0 1 1.742-.474c.613 0 1.214.164 1.742.474l28.863 16.665a3.48 3.48 0 0 1 1.278 1.278c.307.531.468 1.133.467 1.746v33.364a3.47 3.47 0 0 1-.469 1.742c-.306.53-.746.97-1.276 1.275l-28.863 16.686c-.532.303-1.133.462-1.745.462s-1.214-.159-1.746-.462l-28.862-16.686a3.48 3.48 0 0 1-1.274-1.276c-.305-.529-.466-1.13-.466-1.741v-33.364a3.48 3.48 0 0 1 .466-1.747 3.47 3.47 0 0 1 1.28-1.277l28.863-16.665h0z" fill-opacity=".5"/></g><path opacity=".66" d="M246.486 111.055L217.733 94.39a3.49 3.49 0 0 0-.914-.364l-32.505 55.603a3.7 3.7 0 0 0 .983.831l28.925 16.686c.417.241.88.392 1.36.443a3.45 3.45 0 0 0 1.423-.148l30.361-55.609a3.03 3.03 0 0 0-.88-.777h0z"/><path d="M217.678 167.146l28.815-16.685a3.38 3.38 0 0 0 1.215-1.289c.283-.531.418-1.127.393-1.728v-.131l-31.172-53.259c-.45-.125-.921-.159-1.384-.101a3.54 3.54 0 0 0-1.316.438l-28.588 16.493 31.096 56.647a3.78 3.78 0 0 0 .941-.385h0z"/></svg>