<svg xmlns="http://www.w3.org/2000/svg" xmlns:v="https://vecta.io/nano" width="512" height="288" fill="none"><path d="M85.431 165.59l-14.044 15.059c-.304.327-.671.588-1.081.767s-.851.271-1.297.271H2.433c-.318.001-.629-.092-.895-.266s-.475-.422-.601-.714-.166-.613-.113-.926a1.63 1.63 0 0 1 .412-.836l14.028-15.059c.304-.328.672-.589 1.081-.767a3.24 3.24 0 0 1 1.298-.271h66.575c.321-.007.636.081.906.253a1.62 1.62 0 0 1 .729 1.648 1.62 1.62 0 0 1-.423.841h0zm-14.044-30.332c-.305-.325-.673-.585-1.082-.764s-.85-.272-1.296-.274H2.433c-.318 0-.629.092-.895.266s-.475.422-.601.714-.166.613-.113.926.196.604.412.836l14.028 15.067a3.3 3.3 0 0 0 1.082.764c.409.178.85.272 1.296.274h66.576c.237 0 .471-.052.686-.153a1.62 1.62 0 0 0 .558-.428c.152-.182.263-.395.325-.624s.073-.468.032-.702a1.63 1.63 0 0 0-.412-.835l-14.02-15.067h0zM2.433 124.44h66.576c.446-.001.888-.094 1.296-.272s.777-.44 1.081-.766l14.044-15.06c.221-.232.368-.524.423-.84a1.62 1.62 0 0 0-.116-.934c-.13-.293-.343-.541-.613-.713a1.63 1.63 0 0 0-.906-.255H17.642a3.27 3.27 0 0 0-1.297.272c-.409.179-.777.44-1.081.766l-14.028 15.06a1.63 1.63 0 0 0-.299 1.762c.127.291.336.539.602.713a1.63 1.63 0 0 0 .894.267h0zm164.165 13.339h-35.619v-11.73h44.876v-11.73H130.86a11.71 11.71 0 0 0-8.296 3.384c-2.207 2.183-3.456 5.154-3.473 8.259v11.888c.009 2.318.707 4.58 2.003 6.501s3.133 3.414 5.278 4.29a11.69 11.69 0 0 0 4.488.868h35.666v11.73h-46.587v11.73h46.659c2.315.011 4.581-.663 6.513-1.939s3.442-3.095 4.34-5.228c.597-1.417.908-2.938.916-4.476v-11.888c-.009-2.318-.707-4.58-2.003-6.501a11.71 11.71 0 0 0-5.278-4.29c-1.425-.582-2.95-.876-4.488-.868h0zm69.001-23.461h-35.753a11.71 11.71 0 0 0-4.494.859c-1.427.578-2.726 1.433-3.822 2.515a11.69 11.69 0 0 0-2.567 3.787c-.598 1.42-.91 2.943-.918 4.483v35.364c.008 1.54.32 3.063.918 4.482s1.471 2.706 2.567 3.788 2.395 1.936 3.821 2.515 2.955.87 4.495.858h35.753c3.104.016 6.088-1.201 8.295-3.385s3.457-5.154 3.474-8.258v-35.364a11.69 11.69 0 0 0-7.285-10.777 11.72 11.72 0 0 0-4.484-.867h0zm-.088 46.92h-35.578v-35.19h35.563l.015 35.19h0zm125.314-46.919h-34.873a11.69 11.69 0 0 0-4.485.866c-1.423.58-2.718 1.436-3.811 2.517a11.72 11.72 0 0 0-3.473 8.26v47.007h11.888v-19.267h34.714v19.267h11.889v-47.007a11.7 11.7 0 0 0-.923-4.494c-.601-1.422-1.477-2.712-2.578-3.794a11.7 11.7 0 0 0-3.839-2.511c-1.433-.576-2.965-.863-4.509-.844h0zm-.087 27.652h-34.715v-15.922h34.715v15.922h0zm138.905-27.652h-34.872a11.71 11.71 0 0 0-11.77 11.643v47.007h11.889v-19.267h34.635v19.267h11.889v-47.007a11.69 11.69 0 0 0-.916-4.476c-.596-1.417-1.465-2.702-2.558-3.784s-2.388-1.936-3.812-2.516-2.947-.875-4.485-.867h0zm-.118 27.653h-34.714v-15.923h34.714v15.923zm-68.954 19.267h-4.756l-17-42.006c-.582-1.449-1.585-2.692-2.878-3.567s-2.82-1.345-4.382-1.347h-10.549c-1.544-.008-3.056.442-4.345 1.293s-2.294 2.066-2.892 3.49c-.397.945-.604 1.959-.61 2.984v50.883h11.889v-46.92h4.755l16.993 42.006c.593 1.447 1.603 2.684 2.902 3.554s2.827 1.332 4.39 1.329h10.549a7.82 7.82 0 0 0 5.532-2.26c.729-.721 1.308-1.578 1.705-2.523s.604-1.959.609-2.985v-50.851h-11.912v46.92h0zm-160.812-46.921H257.87v47.008c.008 1.541.32 3.065.919 4.485a11.7 11.7 0 0 0 2.568 3.789 11.71 11.71 0 0 0 8.322 3.369h35.666v-11.73h-35.586v-46.921h0z" fill="#313144"/></svg>